# xmcd
#
# Track frame offsets: 
#        182
#        18322
#        35935
#        48945
#        70020
#        85597
#        100375
#        120675
#        138260
#        154755
#        176570
#        190617
#        207125
#        224742
#        242292
#        255862
#
# Disc length: 3639 seconds
#
# Revision: 1
# Processed by: cddbd v1.5.2PL0 Copyright (c) Steve Scherf et al.
# Submitted via: ExactAudioCopy v0.99pb5
#
DISCID=d20e3510
DTITLE=Gunter Gabriel - Meine schönsten Country-und Truckersongs
DYEAR=1993
DGENRE=Country
TTITLE0=Intercity Linie Nummer 4
TTITLE1=Komm' unter meine Decke
TTITLE2=Hey Boss, ich brauch' mehr Geld
TTITLE3=Er ist ein Kerl
TTITLE4=Ich werd' gesucht
TTITLE5=Deutschland ist....
TTITLE6=Mädchen ab 30
TTITLE7=Rheinhausen
TTITLE8=Ich bin CB-Funker
TTITLE9=Franky's Curry Station
TTITLE10=Ohne Moos, nichts los
TTITLE11=Willy Klein, der Fernsehmann
TTITLE12=Mit dem Hammer in der Hand
TTITLE13=Ich schlaf' nicht gern allein
TTITLE14=Papa trinkt Bier
TTITLE15=Hey Lisa
EXTD=VS-Musik Verlag GmbH, Hamburg\nimtrat, imt 300.013\nLC7507
EXTT0=
EXTT1=
EXTT2=
EXTT3=
EXTT4=
EXTT5=
EXTT6=
EXTT7=
EXTT8=
EXTT9=
EXTT10=
EXTT11=
EXTT12=
EXTT13=
EXTT14=
EXTT15=
PLAYORDER=
